<svg width="126" height="179" viewBox="0 0 126 179" fill="none" xmlns="http://www.w3.org/2000/svg">
<path d="M104.498 25.815C109.754 16.715 116.502 7.981 125.966 0C107.346 7.25 89.946 17.36 74.416 29.92C41.726 54.07 16.806 89.19 5.866 131.6C5.266 133.93 4.716 136.26 4.196 138.58V138.6C4.086 139.13 3.966 139.66 3.856 140.18C3.8 140.45 3.752 140.72 3.697 140.991C3.517 141.874 3.337 142.76 3.169 143.64C3.148 143.755 3.13 143.866 3.109 143.98C3.033 144.39 2.966 144.8 2.893 145.21C2.841 145.48 2.794 145.75 2.749 146.011C2.688 146.359 2.632 146.702 2.573 147.048C2.257 148.921 1.971 150.793 1.715 152.664C1.663 153.036 1.611 153.407 1.559 153.781C1.498 154.223 1.448 154.662 1.396 155.102C1.37 155.308 1.34 155.515 1.315 155.722C1.317 155.721 1.318 155.72 1.32 155.719V155.722C0.89 159.232 0.570001 162.732 0.360001 166.222L0.317001 167.126C1.45 167.202 2.349 168.136 2.349 169.288C2.349 170.49 1.374 171.465 0.171997 171.465C0.150997 171.465 0.132 171.459 0.111 171.459L0.090004 171.902L0 173.752V178.772H4.26C4.31 178.622 4.38 178.472 4.44 178.322C4.94 177.162 5.46 175.982 6.03 174.832C8.3 170.152 11.14 165.772 14.42 163.702C7.94 155.362 9.17 144.262 10.06 139.892C10.071 139.825 10.085 139.765 10.099 139.703C10.236 139.094 10.372 138.492 10.518 137.882C10.888 136.282 11.268 134.692 11.678 133.102C16.798 113.282 25.058 95.112 35.798 78.992C24.728 100.032 20.118 118.032 17.648 134.772C18.078 134.582 18.48 134.323 18.928 134.182C54.094 123.102 69.615 105.258 79.559 85.102H51.238L82.907 77.794C84.159 74.862 85.331 71.894 86.466 68.902H69.958L88.02 64.734C92.227 53.299 96.153 41.616 101.998 30.382H84.718L104.498 25.815Z" fill="#116EFF"/>
</svg>
