<svg viewBox="0 0 324 487" fill="none"
    xmlns="http://www.w3.org/2000/svg">
    <path
        d="M0 40.7469C0 18.6556 17.9086 0.746986 40 0.746986H103.35C118.897 0.746986 131.5 13.35 131.5 28.8966V28.8966C131.5 44.4432 144.103 57.0462 159.65 57.0462H284C306.091 57.0462 324 74.9548 324 97.0462V243.471V364.833V385.118C324 400.168 311.8 412.368 296.75 412.368V412.368C281.7 412.368 269.5 424.569 269.5 439.618V449.282C269.5 469.668 252.973 486.195 232.587 486.195H162H40C17.9086 486.195 0 468.286 0 446.195V40.7469Z"
        fill="#116EFF" />
</svg>